<svg xmlns="http://www.w3.org/2000/svg" viewBox="0 0 640 420" role="img" aria-labelledby="title"><title id="title">Use pose to probe a frozen representation</title><defs><marker id="arrow" markerWidth="9" markerHeight="9" refX="7" refY="3" orient="auto"><path d="M0,0 L0,6 L8,3 Z" fill="#526880"/></marker></defs><rect width="640" height="420" rx="20" fill="#f5f8fc"/><g font-family="Arial, sans-serif" fill="#19324b"><text x="30" y="42" font-size="25" font-weight="700">Use pose to probe a frozen representation</text><rect x="28" y="91" width="152" height="227" rx="14" fill="#deebff"/><circle cx="104" cy="139" r="21" fill="none" stroke="#296cc4" stroke-width="5"/><path d="M104 162V233 M104 182L62 215 M104 182L144 201 M104 233L68 291 M104 233L142 285" fill="none" stroke="#296cc4" stroke-width="7" stroke-linecap="round"/><path d="M191 205H218 M407 205H438" stroke="#526880" stroke-width="3" marker-end="url(#arrow)"/><rect x="232" y="133" width="164" height="144" rx="14" fill="#e6e5fa"/><text x="260" y="175" font-size="24">Encoder</text><rect x="291" y="215" width="40" height="31" rx="4" fill="#6a60a8"/><path d="M300 217V207a11 11 0 0 1 22 0v10" fill="none" stroke="#6a60a8" stroke-width="5"/><text x="267" y="305" font-size="21">Frozen</text><rect x="455" y="133" width="154" height="144" rx="14" fill="#d9f1e8"/><text x="481" y="175" font-size="24">Keypoint</text><text x="498" y="207" font-size="24">probe</text><text x="475" y="305" font-size="21">Train probe</text><text x="30" y="392" font-size="18" fill="#526880">Concept illustration</text></g></svg>